HIERARCHY
ROOT Hips
{
 OFFSET 0.000000 0.000000 0.000000
 CHANNELS 6 Xposition Yposition Zposition Yrotation Xrotation Zrotation
 JOINT Chest
 {
  OFFSET 0.000000 9.303000 0.001900
  CHANNELS 3 Yrotation Xrotation Zrotation
  JOINT Chest2
  {
   OFFSET 0.000000 9.301100 -0.003900
   CHANNELS 3 Yrotation Xrotation Zrotation
   JOINT Chest3
   {
    OFFSET 0.000000 9.262800 0.000000
    CHANNELS 3 Yrotation Xrotation Zrotation
    JOINT Chest4
    {
     OFFSET 0.000000 9.253300 0.000000
     CHANNELS 3 Yrotation Xrotation Zrotation
     JOINT Neck
     {
      OFFSET 0.000000 14.010300 0.000000
      CHANNELS 3 Yrotation Xrotation Zrotation
      JOINT Head
      {
       OFFSET 0.000000 8.657600 -0.008300
       CHANNELS 3 Yrotation Xrotation Zrotation
       End Site
       {
        OFFSET 0.000000 16.540200 -0.004400
       }
      }
     }
     JOINT RightCollar
     {
      OFFSET -2.834100 9.267700 0.000000
      CHANNELS 3 Yrotation Xrotation Zrotation
      JOINT RightShoulder
      {
       OFFSET -13.135200 0.000000 0.000000
       CHANNELS 3 Yrotation Xrotation Zrotation
       JOINT RightElbow
       {
        OFFSET 0.000000 -28.893500 0.000000
        CHANNELS 3 Yrotation Xrotation Zrotation
        JOINT RightWrist
        {
         OFFSET 0.000000 -23.344000 0.000000
         CHANNELS 3 Yrotation Xrotation Zrotation
         End Site
         {
          OFFSET 0.000000 -17.223000 0.000000
         }
        }
       }
      }
     }
     JOINT LeftCollar
     {
      OFFSET 2.834100 9.267700 0.000000
      CHANNELS 3 Yrotation Xrotation Zrotation
      JOINT LeftShoulder
      {
       OFFSET 13.135200 0.000000 0.000000
       CHANNELS 3 Yrotation Xrotation Zrotation
       JOINT LeftElbow
       {
        OFFSET 0.000000 -28.893500 0.000000
        CHANNELS 3 Yrotation Xrotation Zrotation
        JOINT LeftWrist
        {
         OFFSET 0.000000 -23.344000 0.000000
         CHANNELS 3 Yrotation Xrotation Zrotation
         End Site
         {
          OFFSET 0.000000 -17.223000 0.000000
         }
        }
       }
      }
     }
    }
   }
  }
 }
 JOINT RightHip
 {
  OFFSET -7.547200 -0.009500 -0.001000
  CHANNELS 3 Yrotation Xrotation Zrotation
  JOINT RightKnee
  {
   OFFSET 0.000000 -39.762800 0.000900
   CHANNELS 3 Yrotation Xrotation Zrotation
   JOINT RightAnkle
   {
    OFFSET 0.000000 -38.588200 0.001600
    CHANNELS 3 Yrotation Xrotation Zrotation
    JOINT RightToe
    {
     OFFSET 0.000000 -4.693300 10.419700
     CHANNELS 3 Yrotation Xrotation Zrotation
     End Site
     {
      OFFSET 0.000000 -1.379900 5.669300
     }
    }
   }
  }
 }
 JOINT LeftHip
 {
  OFFSET 7.547200 -0.009500 -0.001000
  CHANNELS 3 Yrotation Xrotation Zrotation
  JOINT LeftKnee
  {
   OFFSET 0.000000 -39.762800 0.000900
   CHANNELS 3 Yrotation Xrotation Zrotation
   JOINT LeftAnkle
   {
    OFFSET 0.000000 -38.588200 0.001600
    CHANNELS 3 Yrotation Xrotation Zrotation
    JOINT LeftToe
    {
     OFFSET 0.000000 -4.693300 10.419700
     CHANNELS 3 Yrotation Xrotation Zrotation
     End Site
     {
      OFFSET 0.000000 -1.379900 5.669300
     }
    }
   }
  }
 }
}
MOTION
Frames: 12
Frame Time: 0.008333
0.000000 82.880600 0.000000 0.000000 -5.767877 0.000000 0.000000 11.653817 0.000000 0.000000 -5.885947 0.000000 0.000000 -0.000000 0.000000 0.000000 -0.000000 0.000000 0.000000 12.528835 0.000000 0.000000 0.711642 0.000000 0.000000 -0.000000 0.000000 0.000000 0.000000 -90.000000 0.000000 -2.309062 0.000000 0.000000 2.309062 0.000000 0.000000 -0.000000 0.000000 0.000000 -0.000000 90.000000 0.000000 -2.309062 0.000000 0.000000 2.309062 0.000000 0.000000 8.520406 0.000000 0.000000 1.905762 0.000000 -0.000000 -4.658285 0.000000 0.000000 -0.000000 0.000000 0.000000 8.520406 0.000000 0.000000 1.905762 0.000000 -0.000000 -4.658285 0.000000 0.000000 -0.000000 0.000000
4.739046 46.068214 5.215667 165.876151 -11.041564 0.570061 3.113918 8.990630 0.824046 0.175527 0.513467 0.045953 0.304601 0.892849 0.081397 2.927766 8.363957 0.965461 -1.559555 21.675153 -0.683182 -1.513294 -2.605897 -0.375204 1.633571 5.239333 -6.070813 -4.881686 -7.388062 -0.342932 -145.580949 -87.907162 160.446665 -8.284993 -3.895048 -27.272438 -10.745459 2.461618 -4.783390 18.402617 -10.665021 9.634840 64.231670 -65.138634 -92.371784 11.167090 -12.344372 25.426052 -21.469267 -76.815013 16.090523 -92.155865 85.693416 -93.799748 -6.151837 -7.796694 -0.803576 0.055913 -0.174794 0.026297 -0.494067 -75.945726 18.919370 81.371577 76.138075 79.371360 -10.300204 -6.181132 0.959442 0.037511 0.257341 0.020862
4.738422 46.068615 5.215363 165.869251 -11.043890 0.576264 3.118736 8.996960 0.822167 0.175624 0.513779 0.046146 0.304097 0.893858 0.083204 2.928645 8.365534 0.967644 -1.556779 21.673732 -0.690495 -1.508613 -2.607576 -0.383574 1.638650 5.231165 -6.079452 -4.865674 -7.389452 -0.334307 -145.507351 -87.918195 160.371416 -8.279429 -3.898487 -27.275851 -10.741265 2.455376 -4.789294 18.412788 -10.666578 9.620468 64.206923 -65.132804 -92.353802 11.165384 -12.335274 25.425269 -21.446730 -76.812640 16.073894 -92.089441 85.689665 -93.727458 -6.198010 -7.801078 -0.807568 0.046787 -0.170801 0.024447 -0.462832 -75.944141 18.894479 81.385040 76.135880 79.384290 -10.299869 -6.181893 0.960095 0.036681 0.255367 0.020492
4.738845 46.069021 5.215810 165.865021 -11.044067 0.573590 3.123789 8.999436 0.826995 0.174901 0.515757 0.047294 0.304327 0.891904 0.082194 2.929009 8.366424 0.969108 -1.551941 21.674016 -0.694624 -1.502590 -2.608123 -0.390335 1.644653 5.226924 -6.085020 -4.864745 -7.388738 -0.328780 -145.543815 -87.921276 160.402742 -8.288651 -3.886940 -27.251426 -10.740711 2.451832 -4.791408 18.417081 -10.666880 9.612874 64.184833 -65.122496 -92.345730 11.151762 -12.341040 25.435897 -21.459478 -76.809734 16.088966 -92.065799 85.688978 -93.703805 -6.196794 -7.803649 -0.810017 0.050677 -0.169063 0.025466 -0.467552 -75.945042 18.904949 81.393237 76.137173 79.391905 -10.296003 -6.184730 0.961589 0.031623 0.256187 0.019322
4.738698 46.069399 5.216615 165.864074 -11.042315 0.571962 3.126170 8.997458 0.828770 0.173736 0.516748 0.047812 0.304378 0.892957 0.082672 2.929305 8.367061 0.969454 -1.549601 21.672760 -0.696941 -1.492204 -2.605199 -0.398417 1.653514 5.222925 -6.088028 -4.869654 -7.389450 -0.325275 -145.469294 -87.928110 160.335364 -8.291892 -3.888348 -27.241442 -10.738067 2.447971 -4.792430 18.415065 -10.664295 9.606411 64.180335 -65.127426 -92.342310 11.153093 -12.339727 25.435324 -21.482737 -76.806705 16.111151 -92.007388 85.689217 -93.649189 -6.199692 -7.809776 -0.809360 0.075679 -0.163393 0.025595 -0.495105 -75.945581 18.932776 81.397559 76.139021 79.390140 -10.294681 -6.184891 0.961628 0.028203 0.256284 0.018579
4.738496 46.069790 5.217471 165.866576 -11.041516 0.568802 3.124738 8.995998 0.831270 0.175254 0.515208 0.047276 0.306292 0.888188 0.083978 2.926734 8.366686 0.972669 -1.549375 21.680539 -0.701905 -1.480954 -2.601900 -0.405804 1.657465 5.228628 -6.089308 -4.872542 -7.391403 -0.326135 -145.203075 -87.930528 160.079808 -8.288621 -3.890481 -27.238012 -10.740840 2.452270 -4.796629 18.416018 -10.661206 9.603639 64.177548 -65.125789 -92.348116 11.151625 -12.337501 25.441846 -21.493497 -76.805798 16.115989 -91.988500 85.690852 -93.631659 -6.179717 -7.809688 -0.809655 0.047665 -0.164336 0.024563 -0.511915 -75.945820 18.947076 81.394376 76.139281 79.386095 -10.299561 -6.185533 0.958532 0.030465 0.257526 0.020408
4.736536 46.070269 5.217178 165.871314 -11.046464 0.576594 3.121776 8.996382 0.824332 0.175361 0.515209 0.047300 0.303743 0.889474 0.084044 2.925222 8.367108 0.973244 -1.540897 21.682612 -0.704926 -1.477330 -2.598156 -0.409682 1.658788 5.230494 -6.087814 -4.872082 -7.391704 -0.329011 -144.778086 -87.928065 159.685671 -8.273629 -3.896779 -27.263820 -10.736087 2.458572 -4.797449 18.412908 -10.662448 9.598692 64.163019 -65.125410 -92.334825 11.154416 -12.335235 25.439992 -21.443888 -76.803319 16.064875 -91.943858 85.682530 -93.581344 -6.229247 -7.813586 -0.808748 0.041826 -0.162567 0.023729 -0.494472 -75.940209 18.922501 81.393768 76.140759 79.378622 -10.298025 -6.181747 0.961116 0.031553 0.254655 0.019624
4.735511 46.070605 5.217312 165.875354 -11.051546 0.577861 3.116487 8.995735 0.824946 0.175033 0.515302 0.047346 0.303542 0.892871 0.083044 2.924363 8.367571 0.972507 -1.528413 21.684106 -0.710338 -1.483607 -2.596640 -0.404567 1.659969 5.230163 -6.085824 -4.862170 -7.391512 -0.326763 -144.837219 -87.934194 159.744648 -8.282371 -3.895607 -27.249091 -10.726224 2.461358 -4.788349 18.409500 -10.655477 9.583417 64.146986 -65.129775 -92.325426 11.157050 -12.333643 25.441543 -21.413298 -76.798548 16.031939 -91.909710 85.679219 -93.541077 -6.254948 -7.813718 -0.808794 0.034056 -0.163247 0.022066 -0.503331 -75.935994 18.923264 81.400009 76.137717 79.382512 -10.294525 -6.175174 0.959810 0.032848 0.249958 0.019068
4.735408 46.070575 5.218685 165.880049 -11.051576 0.571554 3.109917 8.994913 0.831295 0.174820 0.515956 0.047528 0.303184 0.892909 0.083068 2.926649 8.366850 0.970976 -1.525933 21.686330 -0.710917 -1.472263 -2.597124 -0.412636 1.658676 5.228456 -6.083419 -4.846856 -7.388055 -0.322183 -145.012379 -87.936798 159.913521 -8.290214 -3.898747 -27.240285 -10.717297 2.463923 -4.784579 18.407724 -10.651418 9.574243 64.105105 -65.125268 -92.299081 11.150153 -12.343804 25.443290 -21.426054 -76.798205 16.040045 -91.894193 85.682981 -93.523849 -6.239621 -7.804737 -0.810372 0.038453 -0.168946 0.022254 -0.533441 -75.937497 18.947938 81.382234 76.141823 79.366602 -10.288998 -6.168125 0.951231 0.035798 0.247858 0.023733
4.735788 46.070271 5.220891 165.877313 -11.047910 0.562719 3.112522 8.990965 0.840728 0.174605 0.517200 0.047888 0.303095 0.892323 0.082901 2.919999 8.367512 0.973995 -1.516588 21.688105 -0.716551 -1.466041 -2.597563 -0.416283 1.664171 5.225388 -6.085848 -4.842075 -7.384175 -0.318918 -144.980021 -87.940045 159.884578 -8.288757 -3.906431 -27.237133 -10.704686 2.463099 -4.785468 18.404846 -10.651142 9.566509 64.082249 -65.125357 -92.285550 11.147032 -12.349671 25.448143 -21.459719 -76.798693 16.077419 -91.862414 85.687606 -93.494988 -6.198978 -7.793551 -0.813253 0.017674 -0.174830 0.023740 -0.571594 -75.942360 18.989662 81.374162 76.144442 79.358294 -10.287822 -6.165920 0.949431 0.036347 0.248814 0.023675
4.735702 46.070063 5.221814 165.879053 -11.051667 0.557997 3.111398 8.996858 0.846159 0.174640 0.515442 0.047245 0.302833 0.892993 0.083004 2.921951 8.376344 0.971280 -1.510986 21.680741 -0.713780 -1.463967 -2.598366 -0.417705 1.661538 5.213992 -6.080585 -4.839958 -7.381717 -0.318650 -145.057682 -87.940812 159.963117 -8.298116 -3.907865 -27.234430 -10.705369 2.453578 -4.780023 18.400263 -10.649963 9.564915 64.068867 -65.123503 -92.277018 11.151717 -12.342959 25.442412 -21.470303 -76.794002 16.088443 -91.860173 85.689162 -93.496969 -6.171927 -7.786815 -0.813242 0.050326 -0.177932 0.027096 -0.598803 -75.940210 19.013194 81.379645 76.143159 79.363093 -10.286377 -6.163047 0.949161 0.034186 0.247469 0.021742
4.735113 46.069903 5.221922 165.879696 -11.059431 0.557960 3.118403 9.004743 0.846346 0.171035 0.516511 0.046604 0.303299 0.894026 0.083062 2.925777 8.380085 0.974383 -1.515047 21.675698 -0.713356 -1.456587 -2.601931 -0.418745 1.653519 5.207374 -6.079328 -4.840764 -7.379186 -0.317450 -145.042117 -87.940043 159.958511 -8.308693 -3.910881 -27.226103 -10.712751 2.446990 -4.779315 18.404901 -10.647351 9.558007 64.053146 -65.128105 -92.272328 11.165252 -12.328969 25.436390 -21.458535 -76.786519 16.078469 -91.848186 85.690659 -93.487206 -6.170214 -7.783590 -0.811366 0.055045 -0.178371 0.026814 -0.611410 -75.937350 19.023100 81.408847 76.144843 79.389083 -10.280654 -6.157678 0.950903 0.028557 0.240957 0.020915
